<?xml version="1.0" encoding="utf-8"?>
<!-- Generator: Adobe Illustrator 22.0.1, SVG Export Plug-In . SVG Version: 6.00 Build 0)  -->
<svg version="1.1" id="Layer_1" xmlns="http://www.w3.org/2000/svg" xmlns:xlink="http://www.w3.org/1999/xlink" x="0px" y="0px"
	 viewBox="0 0 36 24.6" style="enable-background:new 0 0 36 24.6;" xml:space="preserve">
<style type="text/css">
	.st0{fill:#B11116;}
</style>
<path class="st0" d="M4.8,0v1.5h16.3v9.3h11.5l1.9,2.4v6.5h-2.9c-0.4-2.3-2.6-3.8-4.9-3.4c-1.7,0.3-3.1,1.7-3.4,3.4h-7.5
	c-0.4-2.3-2.6-3.8-4.9-3.4c-1.7,0.3-3.1,1.7-3.4,3.4H4.8v1.5h2.6c0.4,2.3,2.6,3.8,4.9,3.4c1.7-0.3,3-1.7,3.4-3.4h7.5
	c0.4,2.3,2.6,3.8,4.9,3.4c1.7-0.3,3-1.7,3.4-3.4H36v-8.5l-2.4-3l0,0L30,1.9h-7.3V0L4.8,0z M11.5,23.1c-1.5,0-2.7-1.2-2.7-2.7
	s1.2-2.7,2.7-2.7c1.5,0,2.7,1.2,2.7,2.7l0,0C14.2,21.9,13,23.1,11.5,23.1C11.5,23.1,11.5,23.1,11.5,23.1L11.5,23.1z M27.4,23.1
	c-1.5,0-2.7-1.2-2.7-2.7s1.2-2.7,2.7-2.7c1.5,0,2.7,1.2,2.7,2.7l0,0C30.1,21.9,28.9,23.1,27.4,23.1L27.4,23.1L27.4,23.1z M29,3.5
	l2.8,5.8h-9.2V3.5H29z M1.9,13.8H8v1.5H1.9V13.8z M0,9.3h10.7v1.5H0L0,9.3L0,9.3z M1.9,4.7h10.7v1.5H1.9L1.9,4.7L1.9,4.7z"/>
</svg>
