<?xml version="1.0" encoding="utf-8"?>
<!-- Generator: Adobe Illustrator 22.0.1, SVG Export Plug-In . SVG Version: 6.00 Build 0)  -->
<svg version="1.1" id="Layer_1" xmlns="http://www.w3.org/2000/svg" xmlns:xlink="http://www.w3.org/1999/xlink" x="0px" y="0px"
	 viewBox="0 0 64.5 57" style="enable-background:new 0 0 64.5 57;" xml:space="preserve">
<g>
	<path d="M28.6,42.4c-4,0-7.3,3.3-7.3,7.3s3.3,7.3,7.3,7.3s7.3-3.3,7.3-7.3S32.7,42.4,28.6,42.4z M28.6,52c-1.3,0-2.3-1-2.3-2.3
		s1-2.3,2.3-2.3s2.3,1,2.3,2.3S29.9,52,28.6,52z"/>
	<path d="M46.5,42.4c-4,0-7.3,3.3-7.3,7.3s3.3,7.3,7.3,7.3s7.3-3.3,7.3-7.3S50.6,42.4,46.5,42.4z M46.5,52c-1.3,0-2.3-1-2.3-2.3
		s1-2.3,2.3-2.3s2.3,1,2.3,2.3S47.8,52,46.5,52z"/>
	<path d="M62,9.5H13.9l-3.1-7.9C10.4,0.6,9.5,0,8.5,0H0v5h6.8l13.1,33.5l0,0c0,0,0,0.1,0.1,0.1c0,0.1,0.1,0.2,0.2,0.3l0.1,0.1
		c0.1,0.1,0.1,0.2,0.2,0.2l0.1,0.1c0.1,0.1,0.2,0.2,0.3,0.3c0,0,0,0,0.1,0c0.1,0.1,0.2,0.1,0.3,0.2c0,0,0.1,0,0.1,0.1
		c0.1,0,0.2,0.1,0.3,0.1h0.1c0.1,0,0.3,0,0.5,0H53c1.4,0,2.5-1.1,2.5-2.5S54.4,35,53,35H23.9l-3-7.8h36.8c1.4,0,2.5-1.1,2.5-2.5
		s-1.1-2.5-2.5-2.5H18.9l-3-7.8H62c1.4,0,2.5-1.1,2.5-2.5S63.4,9.5,62,9.5z"/>
</g>
</svg>
