<svg 
 xmlns="http://www.w3.org/2000/svg"
 xmlns:xlink="http://www.w3.org/1999/xlink"
 width="32px" height="32px">
<path fill-rule="evenodd"  fill="rgb(178, 24, 28)"
 d="M31.841,7.414 L26.851,18.412 C26.690,18.770 26.335,19.001 25.943,19.002 L11.971,19.002 C11.420,19.002 10.973,18.554 10.973,18.002 C10.973,17.450 11.420,17.002 11.971,17.002 L25.304,17.002 L29.386,8.004 L6.981,8.004 L8.847,21.002 L30.933,21.002 C31.484,21.002 31.931,21.449 31.931,22.002 C31.931,22.554 31.484,23.001 30.933,23.001 L7.979,23.001 C7.478,23.006 7.051,22.638 6.981,22.142 L4.116,2.004 L0.993,2.004 C0.441,2.004 -0.005,1.557 -0.005,1.005 C-0.005,0.452 0.441,0.005 0.993,0.005 L4.985,0.005 C5.486,-0.000 5.913,0.368 5.983,0.865 L6.701,6.004 L30.933,6.004 C31.263,5.993 31.577,6.147 31.771,6.414 C31.972,6.710 31.999,7.092 31.841,7.414 ZM11.971,24.001 C14.175,24.001 15.963,25.792 15.963,28.001 C15.963,30.210 14.175,32.000 11.971,32.000 C9.766,32.000 7.979,30.210 7.979,28.001 C7.979,25.792 9.766,24.001 11.971,24.001 ZM11.971,30.000 C13.073,30.000 13.967,29.105 13.967,28.001 C13.967,26.896 13.073,26.001 11.971,26.001 C10.868,26.001 9.975,26.896 9.975,28.001 C9.975,29.105 10.868,30.000 11.971,30.000 ZM23.947,24.001 C26.152,24.001 27.939,25.792 27.939,28.001 C27.939,30.210 26.152,32.000 23.947,32.000 C21.742,32.000 19.955,30.210 19.955,28.001 C19.955,25.792 21.742,24.001 23.947,24.001 ZM23.947,30.000 C25.049,30.000 25.943,29.105 25.943,28.001 C25.943,26.896 25.049,26.001 23.947,26.001 C22.845,26.001 21.951,26.896 21.951,28.001 C21.951,29.105 22.845,30.000 23.947,30.000 Z"/>
</svg>