<?xml version="1.0" encoding="utf-8"?>
<!-- Generator: Adobe Illustrator 22.0.1, SVG Export Plug-In . SVG Version: 6.00 Build 0)  -->
<svg version="1.1" id="Layer_1" xmlns="http://www.w3.org/2000/svg" xmlns:xlink="http://www.w3.org/1999/xlink" x="0px" y="0px"
	 viewBox="0 0 24 21" style="enable-background:new 0 0 24 21;" xml:space="preserve">
<style type="text/css">
	.st0{fill:#B11116;}
</style>
<path id="Shape_9_copy_5" class="st0" d="M10.7,15.7c-1.5,0-2.7,1.1-2.7,2.6c0,1.5,1.1,2.7,2.6,2.7c0,0,0.1,0,0.1,0
	c1.5,0.1,2.7-1.1,2.8-2.5c0.1-1.5-1.1-2.7-2.5-2.8C10.8,15.7,10.7,15.7,10.7,15.7z M10.7,19.2c-0.5,0-0.8-0.4-0.8-0.9
	c0-0.5,0.4-0.8,0.9-0.8c0.4,0,0.8,0.4,0.8,0.8C11.5,18.8,11.1,19.2,10.7,19.2C10.7,19.2,10.7,19.2,10.7,19.2z M17.3,15.7
	c-1.5,0-2.6,1.3-2.6,2.7c0,1.5,1.3,2.6,2.7,2.6c1.4,0,2.6-1.2,2.6-2.6C20,16.9,18.8,15.7,17.3,15.7z M17.3,19.2
	c-0.5,0-0.8-0.4-0.8-0.8s0.4-0.8,0.8-0.8c0.5,0,0.8,0.4,0.8,0.8C18.2,18.8,17.8,19.2,17.3,19.2C17.3,19.2,17.3,19.2,17.3,19.2z
	 M14.2,6.4c0.2,0,0.5-0.1,0.7-0.3l2.9-2.8l-1.3-1.3l-1.2,1.2V0h-1.9v3.4l-1.2-1.2l-1.3,1.3l2.8,2.7C13.7,6.3,13.9,6.4,14.2,6.4
	L14.2,6.4z M23.8,4.2c-0.2-0.2-0.4-0.4-0.7-0.4h-3.3c-0.5,0-0.9,0.4-0.9,0.9s0.4,0.9,0.9,0.9h2L19.1,13H8.9l-3-7.4h3.2
	c0.5,0,0.9-0.4,0.9-0.9S9.6,3.8,9.1,3.8H5.2L4,0.9C3.9,0.6,3.5,0.4,3.2,0.4H0v1.8h2.5L3.7,5l0,0l3.7,9.2c0.1,0.4,0.5,0.6,0.9,0.6
	h11.5c0.4,0,0.7-0.2,0.9-0.6L23.9,5C24.1,4.7,24,4.4,23.8,4.2L23.8,4.2z"/>
</svg>
