<svg 
 xmlns="http://www.w3.org/2000/svg"
 xmlns:xlink="http://www.w3.org/1999/xlink"
 width="32px" height="32px">
<path fill-rule="evenodd"  fill="rgb(178, 24, 28)"
 d="M31.992,1.001 C31.987,0.902 31.967,0.805 31.932,0.711 C31.932,0.711 31.932,0.661 31.932,0.641 L31.932,0.641 C31.878,0.514 31.800,0.399 31.702,0.301 L31.702,0.301 C31.633,0.234 31.551,0.179 31.462,0.141 L31.382,0.141 C31.264,0.068 31.131,0.020 30.992,0.001 L7.998,0.001 C7.732,-0.000 7.477,0.104 7.288,0.291 L0.290,7.291 L0.290,7.291 C0.212,7.374 0.148,7.468 0.100,7.571 L0.100,7.661 C0.056,7.750 0.022,7.844 -0.000,7.941 L-0.000,8.001 L-0.000,31.000 C-0.000,31.552 0.447,32.000 1.000,32.000 L25.994,32.000 C26.113,31.996 26.232,31.972 26.344,31.930 L26.414,31.930 C26.515,31.883 26.609,31.823 26.693,31.750 L26.693,31.750 L26.813,31.610 L31.812,23.610 C31.937,23.432 32.000,23.218 31.992,23.000 L31.992,1.001 L31.992,1.001 ZM20.055,2.001 L16.486,7.001 L10.937,7.001 L14.506,2.001 L20.055,2.001 ZM9.997,9.001 L15.996,9.001 L15.996,20.001 L9.997,20.001 L9.997,9.001 ZM1.999,30.000 L1.999,9.001 L5.998,9.001 C6.550,9.001 6.998,8.553 6.998,8.001 C6.998,7.449 6.550,7.001 5.998,7.001 L3.409,7.001 L8.408,2.001 L12.057,2.001 L8.188,7.421 C8.188,7.421 8.188,7.511 8.108,7.561 C8.110,7.584 8.110,7.608 8.108,7.631 C8.048,7.746 8.010,7.872 7.998,8.001 L7.998,8.001 L7.998,21.000 C7.998,21.553 8.446,22.000 8.998,22.000 L16.996,22.000 C17.548,22.000 17.995,21.553 17.995,21.000 L17.995,8.321 L22.504,2.001 L29.053,2.001 L25.484,7.001 L20.995,7.001 C20.443,7.001 19.995,7.449 19.995,8.001 C19.995,8.553 20.443,9.001 20.995,9.001 L24.994,9.001 L24.994,30.000 L1.999,30.000 ZM26.993,27.510 L26.993,8.321 L29.993,4.121 L29.993,22.710 L26.993,27.510 Z"/>
</svg>