<?xml version="1.0" encoding="utf-8"?>
<!-- Generator: Adobe Illustrator 22.0.1, SVG Export Plug-In . SVG Version: 6.00 Build 0)  -->
<svg version="1.1" id="Layer_1" xmlns="http://www.w3.org/2000/svg" xmlns:xlink="http://www.w3.org/1999/xlink" x="0px" y="0px"
	 viewBox="0 0 48 47.4" style="enable-background:new 0 0 48 47.4;" xml:space="preserve">
<style type="text/css">
	.st0{fill:#B11116;}
</style>
<path class="st0" d="M47.8,23.7L42.1,17l5.6-6.6c0.2-0.2,0.3-0.5,0.2-0.8c-0.1-0.3-0.2-0.5-0.4-0.6L31.1,0.1C30.7,0,30.3,0,30,0.3
	l-6,6.5l-6.1-6.6c-0.3-0.3-0.7-0.3-1-0.2L0.5,8.9C0.2,9,0,9.3,0,9.6c0,0.2,0,0.5,0.2,0.7L5.9,17l-5.7,6.7C0,23.9,0,24.1,0,24.3
	l0,0.1c0.1,0.3,0.2,0.5,0.4,0.6l5.7,3.2v9c0,0.3,0.2,0.6,0.4,0.8l16.8,9.3v0.2h0.8c0.1,0,0.2-0.1,0.3-0.1L41.4,38
	c0.3-0.2,0.4-0.5,0.4-0.8v-9l5.7-3.2c0.2-0.1,0.4-0.3,0.4-0.6l0-0.1C48,24.1,48,23.9,47.8,23.7z M24.9,28.3l5.7,5.3
	c0.3,0.3,0.7,0.3,1.1,0.2l8.4-4.7v7.5L24.9,45V28.3z M40.8,18.1l5,5.9l-14.4,8l-5.8-5.5L40.8,18.1z M25.5,7.9L30.9,2l14.9,8l-5,5.9
	L25.5,7.9z M39.1,17L24,25.3L8.9,17L24,9.1L39.1,17z M22.6,26.5L16.7,32l-9-5c-0.1-0.1-0.2-0.2-0.3-0.3L2.3,24l5-5.9L22.6,26.5z
	 M7.9,29.2l8.5,4.7c0.1,0.1,0.3,0.1,0.4,0.1c0.2,0,0.4-0.1,0.6-0.3l5.7-5.3V45L7.9,36.7V29.2z M2.3,10l14.9-8l5.4,5.9L7.3,15.8
	L2.3,10z"/>
</svg>
