<?xml version="1.0" encoding="utf-8"?>
<!-- Generator: Adobe Illustrator 22.0.1, SVG Export Plug-In . SVG Version: 6.00 Build 0)  -->
<svg version="1.1" id="Layer_1" xmlns="http://www.w3.org/2000/svg" xmlns:xlink="http://www.w3.org/1999/xlink" x="0px" y="0px"
	 viewBox="0 0 36 36.1" style="enable-background:new 0 0 36 36.1;" xml:space="preserve">
<style type="text/css">
	.st0{fill:#B11116;}
</style>
<g>
	<path class="st0" d="M26.4,31.3H33c0.3,0,0.6-0.3,0.6-0.6c0-0.3-0.3-0.6-0.6-0.6h-6.6c-0.3,0-0.6,0.3-0.6,0.6
		C25.8,31,26.1,31.3,26.4,31.3z"/>
	<polygon class="st0" points="18,10.8 18,10.8 18,10.8 	"/>
	<path class="st0" d="M36,7.7c0,0,0-0.1,0-0.1c0,0,0-0.1-0.1-0.1c0,0,0,0,0-0.1l-6-7.2C29.7,0.1,29.6,0,29.4,0H6.6
		C6.4,0,6.3,0.1,6.1,0.2l-6,7.2c0,0,0,0,0,0C0.1,7.5,0,7.6,0,7.7c0,0,0,0,0,0.1c0,0,0,0,0,0.1v27.7c0,0.3,0.3,0.6,0.6,0.6h34.8v0
		c0.3,0,0.6-0.3,0.6-0.6L36,7.7C36,7.8,36,7.8,36,7.7z M19.8,1.2v6h-3.6v-6H19.8z M16.2,8.4h3.6v4L18.4,11c-0.1-0.1-0.3-0.2-0.4-0.2
		c-0.2,0-0.3,0.1-0.4,0.2l-1.4,1.4V8.4z M34.1,7.2H21v-6h8.1L34.1,7.2z M6.9,1.2H15v6H1.9L6.9,1.2z M34.8,34.9H1.2V8.4H15v5.4
		c0,0.2,0.1,0.3,0.2,0.4c0.2,0.2,0.6,0.2,0.8,0l2-2l2,2c0.1,0.1,0.3,0.2,0.4,0.2v0c0.1,0,0.2,0,0.2,0c0.2-0.1,0.4-0.3,0.4-0.6V8.4
		h13.8V34.9z"/>
	<path class="st0" d="M18.6,17.5C15,17.5,12,20.4,12,24c0,0,0,0,0,0c0,0.3,0.3,0.6,0.6,0.6c0.3,0,0.6-0.3,0.6-0.6c0,0,0,0,0,0
		c0-3,2.4-5.4,5.4-5.4c3,0,5.4,2.4,5.4,5.4s-2.4,5.4-5.4,5.4H17l0.8-0.8c0,0,0,0,0,0c0.2-0.2,0.2-0.6,0-0.8c0,0,0,0,0,0
		c-0.2-0.2-0.6-0.2-0.8,0l-1.8,1.8c-0.1,0.1-0.2,0.3-0.2,0.4c0,0.2,0.1,0.3,0.2,0.4l1.8,1.8c0.1,0.1,0.3,0.2,0.4,0.2
		c0.2,0,0.3-0.1,0.4-0.2c0,0,0,0,0,0c0.2-0.2,0.2-0.6,0-0.8L17,30.7h1.6v0c3.6,0,6.6-2.9,6.6-6.6C25.2,20.4,22.3,17.5,18.6,17.5z
		 M15.6,30.7L15.6,30.7L15.6,30.7L15.6,30.7z"/>
	<path class="st0" d="M33,32.5h-4.2c-0.3,0-0.6,0.3-0.6,0.6c0,0.3,0.3,0.6,0.6,0.6H33c0.3,0,0.6-0.3,0.6-0.6
		C33.6,32.7,33.3,32.5,33,32.5z"/>
	<polygon class="st0" points="17.4,32.5 17.4,32.5 17.4,32.5 	"/>
</g>
</svg>
