<?xml version="1.0" encoding="utf-8"?>
<!-- Generator: Adobe Illustrator 22.0.1, SVG Export Plug-In . SVG Version: 6.00 Build 0)  -->
<svg version="1.1" id="Layer_1" xmlns="http://www.w3.org/2000/svg" xmlns:xlink="http://www.w3.org/1999/xlink" x="0px" y="0px"
	 viewBox="0 0 36 41.2" style="enable-background:new 0 0 36 41.2;" xml:space="preserve">
<style type="text/css">
	.st0{fill:#B11116;}
</style>
<path class="st0" d="M30.2,26.8l-5.9-2.1c-0.9-0.2-2.3-1.3-2.3-2v-1.2c2.3-2.4,3.9-5.5,4.5-8.8c0.8,0.1,1.5-0.5,1.5-1.3
	c0,0,0-0.1,0-0.1v-0.7C27.8,10,27.5,9.4,27,9c-0.5-2.6-1.9-5-4.1-6.6c-0.3-0.3-0.6-0.6-0.7-0.9C22,1,21.6,0.6,21,0.4
	c-2-0.6-4.1-0.6-6.2,0c-0.5,0.1-1,0.5-1.2,1c-0.2,0.3-0.4,0.6-0.7,0.9c-2.1,1.6-3.6,4-4.1,6.6c-0.5,0.4-0.8,1-0.9,1.7v0.7
	c0,0.8,0.6,1.4,1.4,1.3c0,0,0.1,0,0.1,0c0.6,3.3,2.1,6.4,4.5,8.8v1.2c0,0.7-1.3,1.8-2.3,2l-5.9,2.1C2.3,27.9,0,31.2,0,34.9v6.3h36
	v-6.3C36,31.2,33.6,28,30.2,26.8z M29.3,39.9H6.6v-4.7h22.6L29.3,39.9L29.3,39.9z M8.6,33.8v-6.7l1.3-0.5v7.2L8.6,33.8L8.6,33.8z
	 M26,33.8v-7.2l1.3,0.5v6.7H26z M9.3,10.6c0.1-0.3,0.3-0.6,0.6-0.8l0.2-0.1c0.4-2.5,1.7-4.7,3.6-6.2c0.5-0.4,0.9-0.8,1.1-1.4
	c0.1-0.2,0.2-0.3,0.4-0.3c1.8-0.5,3.6-0.5,5.4,0C20.8,1.8,21,1.9,21,2c0.3,0.5,0.7,1,1.1,1.4c2,1.5,3.3,3.7,3.6,6.2L26,9.8
	c0.3,0.2,0.5,0.5,0.6,0.9v0.7H9.2L9.3,10.6L9.3,10.6L9.3,10.6z M10.8,12.6H25c-0.8,4.1-3.7,9.3-7.1,9.3
	C14.6,21.9,11.6,16.6,10.8,12.6L10.8,12.6z M18,23.2c1,0,1.9-0.3,2.7-0.8v0.2c0.1,0.8,0.4,1.5,1,2l-1.3,1.3h-4.8l-1.3-1.3
	c0.6-0.5,0.9-1.2,1-1.9v-0.2C16.1,22.9,17,23.2,18,23.2L18,23.2z M13.2,25.4l1.8,1.8h5.9l1.8-1.8c0.6,0.3,1.3,0.5,1.9,0.7v7.6H11.3
	v-7.6C12,26,12.6,25.7,13.2,25.4L13.2,25.4z M1.3,34.9c0-3.1,2-5.8,4.9-6.8l1.1-0.4v6.2h-2v6h-4V34.9L1.3,34.9z M34.6,39.9h-4v-6h-2
	v-6.2l1.1,0.4c2.9,1,4.9,3.8,4.9,6.8V39.9L34.6,39.9z M7.9,36.5h2.7v1.3H7.9V36.5z M25.3,36.5H28v1.3h-2.7V36.5z"/>
</svg>
