<?xml version="1.0" encoding="utf-8"?>
<!-- Generator: Adobe Illustrator 22.0.1, SVG Export Plug-In . SVG Version: 6.00 Build 0)  -->
<svg version="1.1" id="Layer_1" xmlns="http://www.w3.org/2000/svg" xmlns:xlink="http://www.w3.org/1999/xlink" x="0px" y="0px"
	 viewBox="0 0 48 44.6" style="enable-background:new 0 0 48 44.6;" xml:space="preserve">
<style type="text/css">
	.st0{fill:#B11116;}
</style>
<path class="st0" d="M44.3,3.7h-5.7V0h-1.9v3.7H11.8V0H9.9v3.7H3.7C1.6,3.7,0,5.3,0,7.3V41c0,2,1.6,3.6,3.6,3.6c0,0,0,0,0,0h40.7
	c2,0,3.6-1.6,3.7-3.6c0,0,0,0,0,0V7.3C48,5.3,46.4,3.7,44.3,3.7z M46.1,41c0,0.9-0.8,1.7-1.7,1.7c0,0,0,0,0,0H3.7
	c-0.9,0-1.7-0.7-1.8-1.7c0,0,0,0,0,0V16.1h44.2L46.1,41L46.1,41z M46.1,14.2H1.9V7.3c0-1,0.8-1.8,1.8-1.8l0,0h6.2v2h1.9v-2h24.9v2
	h1.9v-2h5.7c1,0,1.8,0.8,1.8,1.8l0,0V14.2z M22.2,21.7h3.5v1.9h-3.5V21.7z M10.6,21.7h3.5v1.9h-3.5V21.7z M33.9,21.7h3.5v1.9h-3.5
	V21.7z M22.2,28.2h3.5v1.9h-3.5V28.2z M10.6,28.2h3.5v1.9h-3.5V28.2z M33.9,28.2h3.5v1.9h-3.5V28.2z M22.2,34.6h3.5v1.9h-3.5V34.6z
	 M10.6,34.6h3.5v1.9h-3.5V34.6z M33.9,34.6h3.5v1.9h-3.5V34.6z"/>
</svg>
