<svg 
 xmlns="http://www.w3.org/2000/svg"
 xmlns:xlink="http://www.w3.org/1999/xlink"
 width="13px" height="12px">
<path fill-rule="evenodd"  fill="rgb(28, 28, 28)"
 d="M6.703,5.996 L11.853,0.846 C12.049,0.650 12.049,0.334 11.853,0.138 C11.658,-0.057 11.341,-0.057 11.146,0.138 L5.996,5.288 L0.846,0.138 C0.651,-0.057 0.334,-0.057 0.138,0.138 C-0.057,0.334 -0.057,0.650 0.138,0.846 L5.288,5.996 L0.138,11.146 C-0.057,11.341 -0.057,11.658 0.138,11.853 C0.236,11.951 0.364,12.000 0.492,12.000 C0.620,12.000 0.748,11.951 0.846,11.853 L5.996,6.703 L11.146,11.853 C11.244,11.951 11.372,12.000 11.500,12.000 C11.628,12.000 11.756,11.951 11.853,11.853 C12.049,11.658 12.049,11.341 11.853,11.146 L6.703,5.996 Z"/>
</svg>