<svg 
 xmlns="http://www.w3.org/2000/svg"
 xmlns:xlink="http://www.w3.org/1999/xlink"
 width="38px" height="48px">
<path fill-rule="evenodd"  fill="rgb(177, 17, 22)"
 d="M34.663,41.870 C34.663,42.892 34.663,43.914 34.663,44.936 L32.106,44.936 C32.106,45.958 32.106,46.979 32.106,48.001 L0.598,48.001 L0.598,6.130 L3.155,6.130 L3.155,3.065 L5.861,3.065 L5.861,-0.001 L37.370,-0.001 C37.370,13.956 37.370,27.913 37.370,41.870 L34.663,41.870 ZM3.155,7.151 L1.614,7.151 L1.614,46.980 L31.090,46.980 L31.090,44.936 L3.155,44.936 L3.155,7.151 ZM5.861,4.087 L4.171,4.087 L4.171,43.915 L33.647,43.915 L33.647,41.870 L5.861,41.870 L5.861,4.087 ZM36.354,1.020 L6.878,1.020 L6.878,40.848 L36.354,40.848 L36.354,1.020 ZM29.665,11.584 L13.566,11.584 C13.566,11.244 13.566,10.904 13.566,10.563 L29.665,10.563 L29.665,11.584 ZM29.665,16.514 L13.566,16.514 C13.566,16.174 13.566,15.834 13.566,15.494 L29.665,15.494 L29.665,16.514 ZM29.665,21.444 L13.566,21.444 C13.566,21.104 13.566,20.764 13.566,20.424 L29.665,20.424 L29.665,21.444 ZM29.665,26.375 L13.566,26.375 C13.566,26.035 13.566,25.694 13.566,25.354 L29.665,25.354 L29.665,26.375 ZM29.665,31.305 L13.566,31.305 C13.566,30.965 13.566,30.625 13.566,30.285 L29.665,30.285 L29.665,31.305 Z"/>
</svg>