<svg 
 xmlns="http://www.w3.org/2000/svg"
 xmlns:xlink="http://www.w3.org/1999/xlink"
 width="24px" height="24px">
<path fill-rule="evenodd"  fill="rgb(177, 17, 22)"
 d="M11.988,0.000 C11.520,0.008 11.144,0.388 11.144,0.857 C11.144,0.862 11.144,0.865 11.144,0.870 L11.144,0.869 L11.144,15.935 L5.755,10.543 C5.600,10.388 5.386,10.293 5.150,10.293 C4.677,10.293 4.293,10.677 4.293,11.150 C4.293,11.387 4.389,11.600 4.544,11.756 L11.395,18.610 C11.397,18.612 11.401,18.615 11.405,18.618 L11.406,18.619 C11.415,18.628 11.424,18.636 11.433,18.644 L11.433,18.645 C11.445,18.655 11.457,18.665 11.469,18.676 L11.470,18.677 C11.476,18.682 11.484,18.688 11.493,18.694 L11.495,18.695 C11.506,18.703 11.520,18.714 11.535,18.724 L11.539,18.726 C11.547,18.731 11.558,18.738 11.570,18.745 L11.574,18.747 C11.583,18.752 11.595,18.760 11.609,18.766 L11.613,18.769 C11.620,18.772 11.632,18.778 11.644,18.783 L11.649,18.785 C11.657,18.789 11.670,18.795 11.684,18.801 L11.689,18.803 C11.697,18.807 11.712,18.811 11.727,18.817 L11.733,18.818 C11.739,18.821 11.751,18.825 11.763,18.829 L11.769,18.830 C11.778,18.832 11.793,18.837 11.808,18.840 L11.813,18.841 C11.820,18.843 11.835,18.846 11.848,18.848 L11.853,18.849 C11.862,18.850 11.876,18.853 11.890,18.854 L11.895,18.855 C11.905,18.856 11.920,18.858 11.935,18.859 L11.937,18.859 C11.951,18.860 11.966,18.860 11.982,18.860 L11.982,18.860 C11.988,18.860 11.996,18.861 12.003,18.861 C12.009,18.861 12.017,18.861 12.024,18.860 L12.024,18.860 C12.050,18.860 12.075,18.858 12.100,18.855 L12.096,18.856 C12.103,18.855 12.105,18.854 12.107,18.854 L12.102,18.855 C12.124,18.852 12.142,18.849 12.160,18.845 L12.155,18.846 C12.174,18.842 12.188,18.839 12.201,18.836 L12.195,18.838 C12.212,18.834 12.223,18.831 12.234,18.828 L12.228,18.829 C12.251,18.823 12.268,18.817 12.285,18.812 L12.279,18.814 C12.295,18.809 12.305,18.804 12.315,18.800 L12.310,18.802 C12.331,18.794 12.346,18.788 12.360,18.781 L12.355,18.783 C12.383,18.770 12.404,18.760 12.425,18.748 L12.420,18.751 C12.424,18.748 12.425,18.748 12.426,18.747 L12.423,18.749 C12.443,18.738 12.459,18.727 12.474,18.717 L12.471,18.719 C12.486,18.709 12.497,18.703 12.507,18.694 L12.505,18.696 C12.526,18.680 12.544,18.666 12.561,18.651 L12.561,18.652 C12.562,18.650 12.564,18.648 12.566,18.646 L12.566,18.646 C12.580,18.634 12.594,18.623 12.606,18.611 L19.455,11.758 C19.616,11.602 19.715,11.384 19.715,11.143 C19.715,10.670 19.332,10.287 18.858,10.287 C18.849,10.287 18.841,10.287 18.832,10.287 L18.834,10.287 C18.603,10.294 18.395,10.392 18.245,10.546 L18.245,10.546 L12.857,15.937 L12.857,0.871 C12.857,0.868 12.857,0.864 12.857,0.860 C12.857,0.387 12.474,0.003 12.000,0.003 C11.996,0.003 11.991,0.003 11.987,0.003 L11.988,0.003 L11.988,0.000 ZM0.868,22.286 C0.865,22.286 0.861,22.286 0.856,22.286 C0.383,22.286 -0.000,22.669 -0.000,23.143 C-0.000,23.616 0.384,24.000 0.856,24.000 C0.861,24.000 0.865,24.000 0.869,24.000 L23.132,24.000 C23.135,24.000 23.139,24.000 23.144,24.000 C23.617,24.000 24.000,23.616 24.000,23.143 C24.000,22.669 23.617,22.286 23.144,22.286 C23.139,22.286 23.135,22.286 23.131,22.286 L0.868,22.286 Z"/>
</svg>