<svg 
 xmlns="http://www.w3.org/2000/svg"
 xmlns:xlink="http://www.w3.org/1999/xlink"
 width="16px" height="11px">
<path fill-rule="evenodd"  fill="rgb(255, 255, 255)"
 d="M5.628,10.998 C5.555,10.998 5.481,10.976 5.417,10.930 L0.153,7.192 C0.057,7.124 -0.000,7.014 -0.000,6.896 C-0.000,6.779 0.057,6.669 0.153,6.601 L5.417,2.860 C5.581,2.744 5.808,2.782 5.925,2.945 C6.042,3.109 6.004,3.335 5.840,3.452 L1.441,6.577 L15.271,6.577 L15.271,0.363 C15.271,0.163 15.434,0.000 15.635,0.000 C15.836,0.000 15.999,0.163 15.999,0.363 L15.999,6.888 C15.999,7.148 15.844,7.303 15.586,7.303 L1.564,7.303 L5.840,10.339 C6.004,10.455 6.042,10.682 5.925,10.846 C5.854,10.945 5.742,10.998 5.628,10.998 Z"/>
</svg>