<svg 
 xmlns="http://www.w3.org/2000/svg"
 xmlns:xlink="http://www.w3.org/1999/xlink"
 width="20px" height="20px">
<path fill-rule="evenodd"  fill="rgb(110, 110, 110)"
 d="M14.000,20.000 L6.000,20.000 C2.686,20.000 -0.000,17.314 -0.000,14.000 L-0.000,6.000 C-0.000,2.686 2.686,-0.000 6.000,-0.000 L14.000,-0.000 C17.314,-0.000 20.000,2.686 20.000,6.000 L20.000,14.000 C20.000,17.314 17.314,20.000 14.000,20.000 ZM18.000,6.000 C18.000,3.791 16.209,2.000 14.000,2.000 L6.000,2.000 C3.791,2.000 2.000,3.791 2.000,6.000 L2.000,14.000 C2.000,16.209 3.791,18.000 6.000,18.000 L14.000,18.000 C16.209,18.000 18.000,16.209 18.000,14.000 L18.000,6.000 ZM15.000,6.000 C14.448,6.000 14.000,5.552 14.000,5.000 C14.000,4.448 14.448,4.000 15.000,4.000 C15.552,4.000 16.000,4.448 16.000,5.000 C16.000,5.552 15.552,6.000 15.000,6.000 ZM10.000,14.000 C7.791,14.000 6.000,12.209 6.000,10.000 C6.000,7.791 7.791,6.000 10.000,6.000 C12.209,6.000 14.000,7.791 14.000,10.000 C14.000,12.209 12.209,14.000 10.000,14.000 ZM10.000,8.000 C8.895,8.000 8.000,8.895 8.000,10.000 C8.000,11.105 8.895,12.000 10.000,12.000 C11.105,12.000 12.000,11.105 12.000,10.000 C12.000,8.895 11.105,8.000 10.000,8.000 Z"/>
</svg>