<svg 
 xmlns="http://www.w3.org/2000/svg"
 xmlns:xlink="http://www.w3.org/1999/xlink"
 width="32px" height="32px">
<path fill-rule="evenodd"  fill="rgb(178, 24, 28)"
 d="M31.000,32.000 L1.000,32.000 C0.448,32.000 -0.000,31.552 -0.000,31.000 L-0.000,8.000 C-0.000,7.448 0.448,7.000 1.000,7.000 L6.000,7.000 C6.552,7.000 7.000,7.448 7.000,8.000 C7.000,8.552 6.552,9.000 6.000,9.000 L2.000,9.000 L2.000,30.000 L30.000,30.000 L30.000,9.000 L26.000,9.000 C25.448,9.000 25.000,8.552 25.000,8.000 C25.000,7.448 25.448,7.000 26.000,7.000 L31.000,7.000 C31.552,7.000 32.000,7.448 32.000,8.000 L32.000,31.000 C32.000,31.552 31.552,32.000 31.000,32.000 ZM27.000,12.000 C27.000,12.552 26.552,13.000 26.000,13.000 L23.000,13.000 L23.000,16.000 C23.000,16.552 22.552,17.000 22.000,17.000 C21.448,17.000 21.000,16.552 21.000,16.000 L21.000,13.000 L11.000,13.000 L11.000,16.000 C11.000,16.552 10.552,17.000 10.000,17.000 C9.448,17.000 9.000,16.552 9.000,16.000 L9.000,13.000 L6.000,13.000 C5.448,13.000 5.000,12.552 5.000,12.000 C5.000,11.448 5.448,11.000 6.000,11.000 L9.000,11.000 L9.000,7.000 C9.000,3.134 12.134,-0.000 16.000,-0.000 C19.866,-0.000 23.000,3.134 23.000,7.000 L23.000,11.000 L26.000,11.000 C26.552,11.000 27.000,11.448 27.000,12.000 ZM21.000,7.000 C21.000,4.239 18.761,2.000 16.000,2.000 C13.239,2.000 11.000,4.239 11.000,7.000 L11.000,11.000 L21.000,11.000 L21.000,7.000 Z"/>
</svg>