<?xml version="1.0" encoding="utf-8"?>
<!-- Generator: Adobe Illustrator 22.0.1, SVG Export Plug-In . SVG Version: 6.00 Build 0)  -->
<svg version="1.1" id="Layer_1" xmlns="http://www.w3.org/2000/svg" xmlns:xlink="http://www.w3.org/1999/xlink" x="0px" y="0px"
	 viewBox="0 0 36 28.2" style="enable-background:new 0 0 36 28.2;" xml:space="preserve">
<style type="text/css">
	.st0{fill:#B11116;}
</style>
<path class="st0" d="M34.2,13.8V6.9c0-1.9-1.5-3.4-3.4-3.4h-4.5V2.9c0,0,0,0,0,0c0-1.6-1.3-2.9-2.9-2.9H9.2C7.6,0,6.4,1.3,6.4,2.9
	v0.7h-3C1.5,3.6,0,5.1,0,6.9v17.8c0,1.9,1.5,3.4,3.4,3.4h27.4c1.9,0,3.4-1.5,3.4-3.4v-5.4c1,0,1.8-0.9,1.8-1.9v-1.8
	C36,14.6,35.2,13.8,34.2,13.8z M34,17.4H28v-1.7H34V17.4z M30.8,5.5c0.8,0,1.4,0.6,1.4,1.4v1h-5.9V5.5H30.8z M8.3,2.9
	C8.3,2.4,8.7,2,9.2,2h14.3c0,0,0,0,0,0c0.5,0,0.9,0.4,0.9,0.9V8H8.3V4.5v-1V2.9z M30.8,26.2H3.4c-0.8,0-1.4-0.7-1.4-1.5V6.9
	c0-0.8,0.6-1.4,1.4-1.4h2.7l0,2.6l0,0.1c0,0.2,0.1,0.5,0.2,0.7v0h0c0.3,0.6,1,1,1.7,1c0.1,0,0.1,0,0.2,0h24v3.9h-4.4
	c-1,0-1.9,0.8-1.9,1.9v1.8c0,0,0,0,0,0c0,1,0.8,1.9,1.9,1.9h4.4v5.4C32.2,25.6,31.6,26.2,30.8,26.2z"/>
</svg>
