<svg 
 xmlns="http://www.w3.org/2000/svg"
 xmlns:xlink="http://www.w3.org/1999/xlink"
 width="33px" height="32px">
<path fill-rule="evenodd"  fill="rgb(178, 24, 28)"
 d="M31.948,13.019 C31.862,13.172 31.738,13.299 31.586,13.389 C31.107,13.674 30.485,13.522 30.196,13.049 C29.973,12.716 29.973,12.284 30.196,11.950 C30.982,10.830 31.135,9.391 30.601,8.134 C29.850,6.388 27.958,5.403 26.073,5.776 C25.596,5.865 25.119,5.627 24.908,5.197 L23.672,2.340 L3.867,10.492 C3.423,10.641 2.935,10.445 2.723,10.032 C2.488,9.574 2.674,9.015 3.138,8.783 L23.814,0.102 C24.063,-0.001 24.344,-0.001 24.594,0.102 C24.845,0.201 25.046,0.395 25.151,0.641 L26.478,3.718 C29.055,3.553 31.465,4.988 32.516,7.315 C33.320,9.188 33.107,11.336 31.948,13.019 ZM4.597,13.019 C4.597,12.468 5.050,12.020 5.610,12.020 L27.896,12.020 C28.456,12.020 28.909,12.468 28.909,13.019 L28.909,16.356 C30.647,16.959 32.014,18.307 32.626,20.022 C33.740,23.145 32.076,26.567 28.909,27.665 L28.909,31.002 C28.909,31.554 28.456,32.001 27.896,32.001 L5.610,32.001 C5.050,32.001 4.597,31.554 4.597,31.002 L4.597,27.665 C2.858,27.062 1.491,25.714 0.880,24.000 C-0.234,20.877 1.430,17.455 4.597,16.356 L4.597,13.019 ZM2.648,21.196 C2.202,23.358 3.619,25.468 5.812,25.907 C6.292,26.003 6.633,26.424 6.623,26.906 L6.623,30.003 L26.883,30.003 L26.883,26.926 C26.873,26.444 27.214,26.023 27.694,25.927 L27.694,25.947 C29.288,25.628 30.535,24.398 30.858,22.826 C31.304,20.663 29.887,18.554 27.694,18.114 C27.214,18.018 26.873,17.598 26.883,17.115 L26.883,14.018 L6.623,14.018 L6.623,17.075 C6.633,17.558 6.292,17.978 5.812,18.074 C4.218,18.394 2.971,19.623 2.648,21.196 ZM14.220,17.016 C14.610,17.018 14.988,17.148 15.294,17.385 C15.604,17.682 15.767,18.098 15.740,18.524 L15.740,19.523 C15.743,19.751 15.706,19.978 15.628,20.192 C15.564,20.374 15.448,20.534 15.294,20.652 C14.981,20.886 14.593,21.003 14.200,20.982 C13.830,20.983 13.471,20.856 13.187,20.622 C12.851,20.344 12.670,19.925 12.701,19.493 L12.701,18.494 C12.678,18.057 12.866,17.635 13.207,17.355 C13.496,17.131 13.853,17.012 14.220,17.016 ZM13.714,19.343 C13.714,19.743 13.886,19.943 14.220,19.943 C14.555,19.943 14.727,19.743 14.727,19.343 L14.727,18.684 C14.727,18.284 14.555,18.085 14.220,18.085 C13.886,18.085 13.714,18.284 13.714,18.684 L13.714,19.343 ZM19.792,17.016 L14.707,27.006 L13.714,27.006 L18.809,17.016 L19.792,17.016 ZM19.286,23.010 C19.665,23.008 20.034,23.127 20.339,23.349 C20.649,23.647 20.812,24.063 20.785,24.488 L20.785,25.487 C20.788,25.715 20.750,25.942 20.673,26.157 C20.609,26.338 20.493,26.498 20.339,26.616 C20.035,26.857 19.655,26.984 19.265,26.976 C18.895,26.978 18.536,26.850 18.252,26.616 C17.916,26.339 17.735,25.919 17.766,25.487 L17.766,24.488 C17.743,24.051 17.931,23.629 18.273,23.349 C18.561,23.126 18.919,23.006 19.286,23.010 ZM18.779,25.338 C18.779,25.737 18.951,25.937 19.286,25.937 C19.620,25.937 19.792,25.737 19.792,25.338 L19.792,24.678 C19.792,24.279 19.620,24.079 19.286,24.079 C18.951,24.079 18.779,24.279 18.779,24.678 L18.779,25.338 Z"/>
</svg>