<?xml version="1.0" encoding="utf-8"?>
<!-- Generator: Adobe Illustrator 22.0.1, SVG Export Plug-In . SVG Version: 6.00 Build 0)  -->
<svg version="1.1" id="Layer_1" xmlns="http://www.w3.org/2000/svg" xmlns:xlink="http://www.w3.org/1999/xlink" x="0px" y="0px"
	 viewBox="0 0 14 8" style="enable-background:new 0 0 14 8;" xml:space="preserve" width="11px" height="7px">
<style type="text/css">
	.st0{fill:#b11116;}
</style>
<path id="Compound_Shape" class="st0" d="M7,8C6.8,8,6.7,7.9,6.6,7.8L0.2,1.1c-0.2-0.2-0.2-0.6,0-0.9C0.4,0,0.7-0.1,1,0.2
	c0,0,0,0,0,0l6,6.3l6-6.3c0.2-0.2,0.6-0.2,0.8,0c0,0,0,0,0,0c0.2,0.2,0.2,0.6,0,0.9L7.4,7.8C7.3,7.9,7.2,8,7,8z"/>
</svg>
