<?xml version="1.0" encoding="utf-8"?>
<!-- Generator: Adobe Illustrator 22.0.1, SVG Export Plug-In . SVG Version: 6.00 Build 0)  -->
<svg version="1.1" id="Layer_1" xmlns="http://www.w3.org/2000/svg" xmlns:xlink="http://www.w3.org/1999/xlink" x="0px" y="0px"
	 viewBox="0 0 36 35.9" style="enable-background:new 0 0 36 35.9;" xml:space="preserve">
<style type="text/css">
	.st0{fill:#B11116;}
</style>
<path class="st0" d="M33.8,10.5h-33C0.3,10.5,0,10.1,0,9.7S0.3,9,0.8,9l0,0h33c0.4,0,0.8,0.3,0.8,0.8S34.2,10.5,33.8,10.5z M30.2,18
	c-0.1,0-0.1,0-0.2,0c-0.4-0.1-0.6-0.5-0.5-0.9c0,0,0,0,0,0l2.1-7.5C31.6,9.1,32,8.9,32.4,9c0.4,0.1,0.6,0.5,0.5,0.9l0,0l-2,7.5
	C30.8,17.7,30.5,18,30.2,18z M17.3,26.9H9c-1.7,0-3.2-1.1-3.6-2.8L1.5,9.9C1.4,9.5,1.7,9.1,2.1,9C2.5,8.9,2.9,9.1,3,9.5l3.9,14.3
	c0.3,1,1.2,1.7,2.2,1.7h8.2c0.4,0,0.8,0.3,0.8,0.7C18,26.6,17.7,26.9,17.3,26.9C17.3,26.9,17.3,26.9,17.3,26.9z M9.8,10.5
	c-0.1,0-0.3,0-0.4-0.1c-0.3-0.2-0.4-0.7-0.2-1l6-9c0.2-0.3,0.7-0.5,1-0.2s0.5,0.7,0.2,1c0,0,0,0,0,0l-6,9
	C10.2,10.4,10,10.5,9.8,10.5L9.8,10.5z M24.8,10.5c-0.2,0-0.5-0.1-0.6-0.3l-6-9c-0.2-0.3-0.2-0.8,0.2-1s0.8-0.2,1,0.2c0,0,0,0,0,0
	l6,9c0.2,0.3,0.1,0.8-0.2,1C25,10.4,24.9,10.5,24.8,10.5L24.8,10.5z M27.8,35.9c-4.5,0-8.2-3.7-8.2-8.3c0-4.5,3.7-8.2,8.2-8.2
	c4.5,0,8.2,3.7,8.2,8.2C36,32.2,32.3,35.9,27.8,35.9L27.8,35.9z M27.8,21C24,21,21,24,21,27.7c0,3.7,3,6.7,6.8,6.7
	c3.7,0,6.7-3,6.7-6.7C34.5,24,31.5,21,27.8,21L27.8,21z M26.3,31.4c-0.2,0-0.4-0.1-0.5-0.2l-3-3c-0.3-0.3-0.3-0.8,0-1.1
	c0.3-0.3,0.8-0.3,1.1,0l0,0l2.5,2.5l5.5-5.5c0.3-0.3,0.8-0.3,1.1,0c0.3,0.3,0.3,0.8,0,1.1l-6,6C26.6,31.3,26.4,31.4,26.3,31.4
	L26.3,31.4z"/>
</svg>
