<?xml version="1.0" encoding="utf-8"?>
<!-- Generator: Adobe Illustrator 22.0.1, SVG Export Plug-In . SVG Version: 6.00 Build 0)  -->
<svg version="1.1" id="Layer_1" xmlns="http://www.w3.org/2000/svg" xmlns:xlink="http://www.w3.org/1999/xlink" x="0px" y="0px"
	 viewBox="0 0 50 44" style="enable-background:new 0 0 50 44;" xml:space="preserve">
<style type="text/css">
	.st0{fill:#B11116;}
</style>
<g>
	<path class="st0" d="M50,7.2c-0.1-1.2-1.2-2-2.3-1.9H31c1.1-1.2,1.1-3.1,0-4.3c-1.2-1.3-3.3-1.3-4.6-0.1c-0.7,0.7-1.2,2.4-1.5,3.8
		c-0.3-1.3-0.8-3.1-1.5-3.8c-1.2-1.1-3-1.1-4.2,0C18,2,17.8,4,19,5.3H2.3C1.2,5.3,0.2,6.1,0,7.2l0,8.7L0,16c0.1,1.1,1.2,2,2.3,1.9
		h1.3l0,23.5c-0.1,1.3,1,2.5,2.3,2.5l38.2,0c1.3-0.1,2.3-1.2,2.2-2.5V18h1.3c0.1,0,0.1,0,0.2,0v0c1.1,0,2-0.8,2.1-1.9l0-8.7L50,7.2z
		 M22.4,16.1v-9h5.2v9H22.4z M27.7,2.2c0.3-0.2,0.6-0.4,1-0.4v0h0.1c0.4,0,0.7,0.2,1,0.4c0.5,0.5,0.5,1.3,0.1,1.9l0,0
		c-0.9,0.5-1.9,0.8-3,1C26.9,4.1,27.2,3.1,27.7,2.2z M20.3,2.3c0.5-0.6,1.4-0.6,2-0.1c0.5,0.9,0.9,1.9,1,3c-1.1-0.2-2.1-0.5-3-1
		c0,0,0,0,0,0l0,0C19.8,3.5,19.8,2.8,20.3,2.3z M2.3,16.1L2.3,16.1c-0.3,0-0.5-0.1-0.5-0.3V7.4c0-0.2,0.2-0.3,0.4-0.3h18.4v9H4.5
		v0.9h0v-0.9H2.3z M44.1,42.2H6c0,0,0,0,0,0c-0.3,0-0.6-0.3-0.6-0.7V17.9h39.2v23.6C44.6,41.9,44.4,42.1,44.1,42.2z M48.2,15.9
		c0,0.2-0.2,0.3-0.4,0.3h-2.3v0H29.4v-9h18.3h0.1c0.2,0,0.4,0.1,0.4,0.3V15.9z"/>
	<path class="st0" d="M30.2,30.8c-2,0-3.7,1.6-3.7,3.6c0,2,1.6,3.7,3.6,3.7l0,0c2,0,3.7-1.6,3.7-3.6C33.8,32.5,32.2,30.9,30.2,30.8z
		 M30.2,36.4c-1,0-1.9-0.8-1.9-1.9c0-1,0.8-1.9,1.9-1.9l0,0c0,0,0,0,0,0c1,0,1.9,0.8,1.9,1.9C32,35.5,31.2,36.4,30.2,36.4z"/>
	<path class="st0" d="M20.3,28.2c2,0,3.7-1.6,3.7-3.7c0-2-1.6-3.6-3.6-3.7c-2,0-3.7,1.6-3.7,3.6C16.6,26.6,18.3,28.2,20.3,28.2
		L20.3,28.2z M18.4,24.6c0-1,0.8-1.9,1.9-1.9l0,0c0,0,0,0,0,0c1,0,1.9,0.8,1.9,1.9c0,1-0.8,1.9-1.9,1.9
		C19.3,26.4,18.4,25.6,18.4,24.6z"/>
	<path class="st0" d="M31.4,24.3c0.3-0.4,0.3-0.9,0-1.3c-0.4-0.3-0.9-0.3-1.3,0L18.8,34.4c-0.2,0.2-0.3,0.4-0.3,0.6
		c0,0.5,0.4,0.9,0.9,0.9l0,0c0.2,0,0.5-0.1,0.6-0.3L31.4,24.3C31.4,24.4,31.4,24.3,31.4,24.3z"/>
</g>
</svg>
