<?xml version="1.0" encoding="utf-8"?>
<!-- Generator: Adobe Illustrator 22.0.1, SVG Export Plug-In . SVG Version: 6.00 Build 0)  -->
<svg version="1.1" id="Layer_1" xmlns="http://www.w3.org/2000/svg" xmlns:xlink="http://www.w3.org/1999/xlink" x="0px" y="0px"
	 viewBox="0 0 37.6 48" style="enable-background:new 0 0 37.6 48;" xml:space="preserve">
<style type="text/css">
	.st0{fill:#B11116;}
</style>
<path class="st0" d="M12.8,32.8h1.6v1.6h-1.6V32.8z M15.2,32.8h3.2v1.6h-3.2V32.8z M12.8,30.4h5.6V32h-5.6V30.4z M36.8,38.4h-1.6
	V13.6c0-0.4-0.4-0.8-0.8-0.8h0H9.6v-12C9.6,0.4,9.3,0,8.8,0l0,0H2.4C1.1,0,0,1.1,0,2.4c0,1.3,1.1,2.4,2.4,2.4h2.4V34
	c-3.8,1.3-5.7,5.4-4.4,9.2c1.3,3.8,5.4,5.7,9.2,4.4c2.1-0.7,3.7-2.3,4.4-4.4h22.8c0.4,0,0.8-0.4,0.8-0.8v0v-3.2
	C37.6,38.8,37.3,38.4,36.8,38.4z M22.4,14.4v4.8h-1.6v-4.8H22.4z M19.2,14.4V20c0,0.4,0.3,0.8,0.8,0.8c0,0,0,0,0,0h3.2
	c0.4,0,0.8-0.4,0.8-0.8c0,0,0,0,0,0v-5.6h9.6v24H14c-0.7-2-2.3-3.7-4.4-4.4V14.4H19.2z M1.6,2.4C1.6,2,2,1.6,2.4,1.6l0,0H8v1.6H2.4
	C2,3.2,1.6,2.8,1.6,2.4C1.6,2.4,1.6,2.4,1.6,2.4L1.6,2.4z M6.4,4.8H8v28.9c-0.5-0.1-1.1-0.1-1.6,0V4.8z M7.2,46.4
	c-3.1,0-5.6-2.5-5.6-5.6s2.5-5.6,5.6-5.6c3.1,0,5.6,2.5,5.6,5.6c0,0,0,0,0,0C12.8,43.9,10.3,46.4,7.2,46.4
	C7.2,46.4,7.2,46.4,7.2,46.4L7.2,46.4z M36,41.6H14.4c0.1-0.5,0.1-1.1,0-1.6H36V41.6z"/>
</svg>
