<?xml version="1.0" encoding="utf-8"?>
<!-- Generator: Adobe Illustrator 22.0.1, SVG Export Plug-In . SVG Version: 6.00 Build 0)  -->
<svg version="1.1" id="Layer_1" xmlns="http://www.w3.org/2000/svg" xmlns:xlink="http://www.w3.org/1999/xlink" x="0px" y="0px"
	 viewBox="0 0 474.7 512" style="enable-background:new 0 0 474.7 512;" xml:space="preserve" fill="#b01115" width="32px" height="34px">
<g>
	<title>usr</title>
	<path d="M237.3,252c69.6,0,126-56.4,126-126S306.9,0,237.3,0s-126,56.4-126,126C111.4,195.5,167.8,251.9,237.3,252z M237.3,37.5
		c48.8,0,88.4,39.6,88.4,88.4s-39.6,88.4-88.4,88.4c-48.8,0-88.4-39.6-88.4-88.4C149,77.2,188.5,37.6,237.3,37.5L237.3,37.5z"/>
	<path d="M37.6,512c0-110.1,89.6-199.8,199.8-199.8S437.1,401.9,437.1,512h37.6c0-131.1-106.3-237.3-237.3-237.3
		c-62.9,0-123.3,25-167.8,69.5C24.9,388.6-0.2,449,0,512H37.6z"/>
</g>
</svg>
