<svg 
 xmlns="http://www.w3.org/2000/svg"
 xmlns:xlink="http://www.w3.org/1999/xlink"
 width="21px" height="12px">
<path fill-rule="evenodd"  fill="rgb(255, 255, 255)"
 d="M19.547,0.995 L16.256,0.995 C15.982,0.995 15.731,1.146 15.601,1.387 C15.601,1.387 14.289,3.804 13.868,4.618 C12.734,6.809 11.999,6.121 11.999,5.104 L11.999,1.600 C11.999,0.990 11.505,0.496 10.895,0.496 L8.421,0.496 C7.562,0.496 7.030,0.809 6.670,1.308 C6.670,1.308 7.926,1.106 7.926,2.798 C7.926,3.217 7.948,4.425 7.968,5.439 C7.981,6.114 7.131,6.459 6.695,5.943 C5.601,4.646 4.775,2.622 4.196,1.399 C4.080,1.152 3.839,0.995 3.566,0.995 C2.852,0.995 1.424,0.995 0.576,0.995 C0.219,0.995 -0.026,1.345 0.097,1.681 C1.005,4.171 4.915,11.996 9.379,11.996 L11.257,11.996 C11.667,11.996 11.999,11.664 11.999,11.254 L11.999,10.119 C11.999,9.480 12.762,9.150 13.228,9.588 L15.477,11.700 C15.679,11.890 15.945,11.996 16.222,11.996 C16.222,11.996 18.437,11.996 19.175,11.996 C20.599,11.996 20.599,11.008 19.823,10.243 C19.276,9.705 17.304,7.626 17.304,7.626 C16.956,7.263 16.922,6.703 17.226,6.303 C17.864,5.464 18.906,4.091 19.348,3.503 C19.952,2.700 21.046,0.995 19.547,0.995 Z"/>
</svg>