<svg 
 xmlns="http://www.w3.org/2000/svg"
 xmlns:xlink="http://www.w3.org/1999/xlink"
 width="25px" height="25px">
<path fill-rule="evenodd"  fill="rgb(241, 241, 241)"
 d="M11.356,0.082 C5.567,0.083 0.858,4.796 0.855,10.588 C0.855,16.376 5.567,21.086 11.354,21.086 C13.766,21.086 15.986,20.261 17.761,18.889 L23.122,24.249 C23.328,24.454 23.597,24.558 23.867,24.558 C24.137,24.558 24.406,24.454 24.612,24.249 C25.023,23.837 25.023,23.170 24.612,22.759 L19.291,17.440 C20.885,15.599 21.857,13.207 21.857,10.586 C21.857,4.795 17.143,0.082 11.356,0.082 ZM11.356,2.189 C15.983,2.189 19.748,5.955 19.750,10.584 C19.750,15.212 15.984,18.977 11.354,18.977 C6.727,18.977 2.964,15.214 2.962,10.588 C2.962,5.958 6.729,2.190 11.356,2.189 L11.356,2.189 ZM11.356,5.261 C10.774,5.261 10.303,5.733 10.303,6.315 L10.303,9.409 L7.208,9.409 C6.626,9.409 6.155,9.881 6.155,10.463 C6.155,11.044 6.626,11.516 7.208,11.516 L10.303,11.516 L10.303,14.611 C10.303,15.192 10.774,15.665 11.356,15.665 C11.939,15.665 12.410,15.192 12.410,14.611 L12.410,11.516 L15.503,11.516 C16.086,11.516 16.557,11.044 16.557,10.463 C16.557,9.881 16.086,9.409 15.503,9.409 L12.410,9.409 L12.410,6.315 C12.410,5.733 11.939,5.261 11.356,5.261 L11.356,5.261 Z"/>
</svg>